<svg width="257" height="54" viewBox="0 0 257 54" fill="none" xmlns="http://www.w3.org/2000/svg">
<path d="M22 0.333336C16.5365 0.333336 11.5794 1.2755 7.74999 2.91667C5.83529 3.73726 4.20242 4.6972 2.91666 6C1.6309 7.30281 0.666656 9.05475 0.666656 11V32.3333V43C0.666656 44.9438 1.63375 46.6829 2.91666 48C4.19957 49.3171 5.8363 50.3519 7.74999 51.1667C11.5774 52.7961 16.5037 53.6667 22 53.6667C27.4963 53.6667 32.4226 52.7961 36.25 51.1667C38.1637 50.3519 39.8004 49.3171 41.0833 48C42.3662 46.6829 43.3333 44.9438 43.3333 43V32.3333V11C43.3333 9.05475 42.3691 7.30281 41.0833 6C39.7976 4.6972 38.1647 3.73726 36.25 2.91667C32.4206 1.2755 27.4635 0.333336 22 0.333336ZM22 5.66667C26.8458 5.66667 31.2401 6.57908 34.1667 7.83334C35.63 8.46046 36.7299 9.13859 37.3333 9.75C37.9367 10.3614 38 10.7361 38 11C38 11.2639 37.9367 11.6386 37.3333 12.25C36.7299 12.8614 35.63 13.5395 34.1667 14.1667C31.2401 15.4209 26.8458 16.3333 22 16.3333C17.1542 16.3333 12.7599 15.4209 9.83332 14.1667C8.37002 13.5395 7.27006 12.8614 6.66666 12.25C6.06325 11.6386 5.99999 11.2639 5.99999 11C5.99999 10.7361 6.06325 10.3614 6.66666 9.75C7.27006 9.13859 8.37002 8.46046 9.83332 7.83334C12.7599 6.57908 17.1542 5.66667 22 5.66667ZM5.99999 18.1667C6.57001 18.4765 7.11575 18.8115 7.74999 19.0833C11.5794 20.7245 16.5365 21.6667 22 21.6667C27.4635 21.6667 32.4206 20.7245 36.25 19.0833C36.8842 18.8115 37.43 18.4765 38 18.1667V21.6667C38 21.9895 37.9254 22.3921 37.3333 23C36.7412 23.6079 35.6196 24.2981 34.1667 24.9167C31.2607 26.1539 26.9037 27 22 27C17.0963 27 12.7393 26.1539 9.83332 24.9167C8.38035 24.2981 7.25875 23.6079 6.66666 23C6.07457 22.3921 5.99999 21.9895 5.99999 21.6667V18.1667ZM5.99999 28.9167C6.56402 29.2325 7.124 29.5668 7.74999 29.8333C11.5774 31.4628 16.5037 32.3333 22 32.3333C27.4963 32.3333 32.4226 31.4628 36.25 29.8333C36.876 29.5668 37.436 29.2325 38 28.9167V32.3333C38 32.6562 37.9254 33.0588 37.3333 33.6667C36.7412 34.2745 35.6196 34.9647 34.1667 35.5833C31.2607 36.8205 26.9037 37.6667 22 37.6667C17.0963 37.6667 12.7393 36.8205 9.83332 35.5833C8.38035 34.9647 7.25875 34.2745 6.66666 33.6667C6.07457 33.0588 5.99999 32.6562 5.99999 32.3333V28.9167ZM5.99999 39.5833C6.56402 39.8991 7.124 40.2335 7.74999 40.5C11.5774 42.1295 16.5037 43 22 43C27.4963 43 32.4226 42.1295 36.25 40.5C36.876 40.2335 37.436 39.8991 38 39.5833V43C38 43.3229 37.9254 43.7255 37.3333 44.3333C36.7412 44.9412 35.6196 45.6314 34.1667 46.25C31.2607 47.4872 26.9037 48.3333 22 48.3333C17.0963 48.3333 12.7393 47.4872 9.83332 46.25C8.38035 45.6314 7.25875 44.9412 6.66666 44.3333C6.07457 43.7255 5.99999 43.3229 5.99999 43V39.5833Z" fill="white"/>
<path d="M70.7614 40H60.6875V13.8182H70.6591C73.3523 13.8182 75.679 14.3423 77.6392 15.3906C79.608 16.4304 81.125 17.9304 82.1903 19.8906C83.2642 21.8423 83.8011 24.1818 83.8011 26.9091C83.8011 29.6364 83.2685 31.9801 82.2031 33.9403C81.1378 35.892 79.6293 37.392 77.6776 38.4403C75.7259 39.4801 73.4205 40 70.7614 40ZM67.7955 33.9659H70.5057C71.8011 33.9659 72.9048 33.7571 73.8168 33.3395C74.7372 32.9219 75.4361 32.2017 75.9134 31.179C76.3991 30.1562 76.642 28.733 76.642 26.9091C76.642 25.0852 76.3949 23.6619 75.9006 22.6392C75.4148 21.6165 74.6989 20.8963 73.7528 20.4787C72.8153 20.0611 71.6648 19.8523 70.3011 19.8523H67.7955V33.9659ZM87.0898 40V13.8182H98.4421C100.436 13.8182 102.111 14.0866 103.466 14.6236C104.83 15.1605 105.857 15.919 106.547 16.8991C107.246 17.8793 107.596 19.0341 107.596 20.3636C107.596 21.3267 107.382 22.2045 106.956 22.9972C106.539 23.7898 105.951 24.4545 105.192 24.9915C104.434 25.5199 103.547 25.8864 102.533 26.0909V26.3466C103.658 26.3892 104.681 26.6747 105.601 27.2031C106.522 27.723 107.255 28.4432 107.8 29.3636C108.346 30.2756 108.618 31.3494 108.618 32.5852C108.618 34.017 108.243 35.2912 107.493 36.4077C106.752 37.5241 105.695 38.402 104.323 39.0412C102.951 39.6804 101.314 40 99.4137 40H87.0898ZM94.1978 34.3239H97.5217C98.7148 34.3239 99.6097 34.1023 100.206 33.6591C100.803 33.2074 101.101 32.5426 101.101 31.6648C101.101 31.0511 100.961 30.5312 100.679 30.1051C100.398 29.679 99.9975 29.3551 99.4776 29.1335C98.9663 28.9119 98.3484 28.8011 97.6239 28.8011H94.1978V34.3239ZM94.1978 24.4034H97.1126C97.7347 24.4034 98.2844 24.3054 98.7617 24.1094C99.239 23.9134 99.6097 23.6321 99.8739 23.2656C100.147 22.8906 100.283 22.4347 100.283 21.8977C100.283 21.0881 99.9933 20.4702 99.4137 20.044C98.8342 19.6094 98.1012 19.392 97.2148 19.392H94.1978V24.4034ZM126.848 40.4091C124.973 40.4091 123.358 40.0767 122.003 39.4119C120.648 38.7472 119.608 37.8565 118.884 36.7401C118.159 35.6236 117.797 34.392 117.797 33.0455C117.797 32.0653 117.985 31.2003 118.36 30.4503C118.735 29.6918 119.259 28.9972 119.932 28.3665C120.605 27.7358 121.394 27.1136 122.297 26.5L128.229 22.8182C128.826 22.4432 129.23 22.0554 129.444 21.6548C129.657 21.2457 129.763 20.8835 129.763 20.5682C129.763 20.1506 129.61 19.7798 129.303 19.456C128.996 19.1321 128.519 18.9744 127.871 18.983C127.471 18.983 127.125 19.0597 126.836 19.2131C126.546 19.358 126.32 19.5625 126.158 19.8267C126.005 20.0909 125.928 20.4062 125.928 20.7727C125.928 21.2756 126.073 21.7912 126.363 22.3196C126.652 22.8395 127.049 23.402 127.551 24.0071C128.054 24.6122 128.621 25.2898 129.252 26.0398L141.934 40H134.877L124.24 28.75C123.721 28.196 123.145 27.5185 122.515 26.7173C121.884 25.9077 121.338 24.9957 120.878 23.9815C120.426 22.9673 120.201 21.8636 120.201 20.6705C120.201 19.3409 120.52 18.1264 121.159 17.027C121.799 15.9276 122.694 15.0497 123.844 14.3935C124.995 13.7372 126.337 13.4091 127.871 13.4091C129.337 13.4091 130.598 13.7116 131.655 14.3168C132.721 14.9219 133.539 15.7273 134.11 16.733C134.689 17.7386 134.979 18.8466 134.979 20.0568C134.979 21.2756 134.676 22.4134 134.071 23.4702C133.475 24.527 132.618 25.4517 131.502 26.2443L126.081 30.0795C125.664 30.3693 125.301 30.7017 124.995 31.0767C124.696 31.4517 124.547 31.9375 124.547 32.5341C124.547 33.0284 124.662 33.4503 124.892 33.7997C125.123 34.1491 125.446 34.4176 125.864 34.6051C126.29 34.7926 126.789 34.8864 127.36 34.8864C128.229 34.8864 129.098 34.6776 129.968 34.2599C130.846 33.8338 131.647 33.2415 132.371 32.483C133.096 31.7159 133.675 30.8125 134.11 29.7727C134.553 28.7244 134.775 27.5824 134.775 26.3466H140.348C140.348 27.8636 140.191 29.3253 139.875 30.7315C139.56 32.1378 139.053 33.4247 138.354 34.5923C137.655 35.7599 136.735 36.7443 135.593 37.5455C135.235 37.7244 134.885 37.8949 134.544 38.0568C134.203 38.2188 133.854 38.3892 133.496 38.5682C132.448 39.2415 131.353 39.7188 130.211 40C129.069 40.2727 127.948 40.4091 126.848 40.4091ZM160.656 40H150.582V13.8182H160.554C163.247 13.8182 165.574 14.3423 167.534 15.3906C169.502 16.4304 171.02 17.9304 172.085 19.8906C173.159 21.8423 173.696 24.1818 173.696 26.9091C173.696 29.6364 173.163 31.9801 172.098 33.9403C171.032 35.892 169.524 37.392 167.572 38.4403C165.62 39.4801 163.315 40 160.656 40ZM157.69 33.9659H160.4C161.696 33.9659 162.799 33.7571 163.711 33.3395C164.632 32.9219 165.331 32.2017 165.808 31.179C166.294 30.1562 166.537 28.733 166.537 26.9091C166.537 25.0852 166.289 23.6619 165.795 22.6392C165.309 21.6165 164.593 20.8963 163.647 20.4787C162.71 20.0611 161.559 19.8523 160.196 19.8523H157.69V33.9659ZM176.984 40V13.8182H188.337C190.331 13.8182 192.006 14.0866 193.361 14.6236C194.724 15.1605 195.751 15.919 196.442 16.8991C197.141 17.8793 197.49 19.0341 197.49 20.3636C197.49 21.3267 197.277 22.2045 196.851 22.9972C196.433 23.7898 195.845 24.4545 195.087 24.9915C194.328 25.5199 193.442 25.8864 192.428 26.0909V26.3466C193.553 26.3892 194.575 26.6747 195.496 27.2031C196.416 27.723 197.149 28.4432 197.695 29.3636C198.24 30.2756 198.513 31.3494 198.513 32.5852C198.513 34.017 198.138 35.2912 197.388 36.4077C196.646 37.5241 195.589 38.402 194.217 39.0412C192.845 39.6804 191.209 40 189.308 40H176.984ZM184.092 34.3239H187.416C188.609 34.3239 189.504 34.1023 190.101 33.6591C190.697 33.2074 190.996 32.5426 190.996 31.6648C190.996 31.0511 190.855 30.5312 190.574 30.1051C190.293 29.679 189.892 29.3551 189.372 29.1335C188.861 28.9119 188.243 28.8011 187.518 28.8011H184.092V34.3239ZM184.092 24.4034H187.007C187.629 24.4034 188.179 24.3054 188.656 24.1094C189.134 23.9134 189.504 23.6321 189.768 23.2656C190.041 22.8906 190.178 22.4347 190.178 21.8977C190.178 21.0881 189.888 20.4702 189.308 20.044C188.729 19.6094 187.996 19.392 187.109 19.392H184.092V24.4034ZM201.031 13.8182H209.878L215.963 28.6477H216.27L222.355 13.8182H231.202V40H224.247V24.8636H224.043L218.213 39.7955H214.02L208.19 24.7614H207.986V40H201.031V13.8182ZM248.684 22C248.616 21.1477 248.296 20.483 247.725 20.0057C247.163 19.5284 246.306 19.2898 245.156 19.2898C244.423 19.2898 243.822 19.3793 243.353 19.5582C242.893 19.7287 242.552 19.9631 242.33 20.2614C242.109 20.5597 241.994 20.9006 241.985 21.2841C241.968 21.5994 242.023 21.8849 242.151 22.1406C242.288 22.3878 242.501 22.6136 242.79 22.8182C243.08 23.0142 243.451 23.1932 243.903 23.3551C244.354 23.517 244.891 23.6619 245.513 23.7898L247.661 24.25C249.11 24.5568 250.35 24.9616 251.381 25.4645C252.413 25.9673 253.256 26.5597 253.913 27.2415C254.569 27.9148 255.05 28.6733 255.357 29.517C255.673 30.3608 255.835 31.2812 255.843 32.2784C255.835 34 255.404 35.4574 254.552 36.6506C253.7 37.8438 252.481 38.7514 250.896 39.3736C249.319 39.9957 247.423 40.3068 245.207 40.3068C242.931 40.3068 240.945 39.9702 239.249 39.2969C237.562 38.6236 236.249 37.5881 235.312 36.1903C234.383 34.7841 233.914 32.9858 233.906 30.7955H240.656C240.698 31.5966 240.898 32.2699 241.256 32.8153C241.614 33.3608 242.117 33.7741 242.765 34.0554C243.421 34.3366 244.201 34.4773 245.104 34.4773C245.863 34.4773 246.498 34.3835 247.009 34.196C247.521 34.0085 247.908 33.7486 248.173 33.4162C248.437 33.0838 248.573 32.7045 248.582 32.2784C248.573 31.8778 248.441 31.5284 248.185 31.2301C247.938 30.9233 247.529 30.6506 246.958 30.4119C246.387 30.1648 245.616 29.9347 244.644 29.7216L242.036 29.1591C239.718 28.6562 237.89 27.8168 236.552 26.6406C235.222 25.456 234.562 23.8409 234.57 21.7955C234.562 20.1335 235.005 18.6804 235.9 17.4361C236.803 16.1832 238.052 15.2074 239.646 14.5085C241.248 13.8097 243.085 13.4602 245.156 13.4602C247.269 13.4602 249.097 13.8139 250.64 14.5213C252.183 15.2287 253.371 16.2259 254.207 17.5128C255.05 18.7912 255.477 20.2869 255.485 22H248.684Z" fill="white"/>
</svg>
